<mxfile host="app.diagrams.net" modified="2023-09-15T16:40:42.596Z" agent="Mozilla/5.0 (Windows NT 10.0; Win64; x64) AppleWebKit/537.36 (KHTML, like Gecko) Chrome/116.0.0.0 Safari/537.36" version="21.7.5" etag="LOEw_b4EwBCXY4dM0O4t" type="github">
  <diagram name="PÃ¡gina-1" id="7a7rnIrsqO0faP8ElADq">
    <mxGraphModel>
      <root>
        <mxCell id="0" />
        <mxCell id="1" parent="0" />
      </root>
    </mxGraphModel>
  </diagram>
</mxfile>
